<?xml version="1.0" encoding="utf-8"?>

<!-- The icon can be used freely in both personal and commercial projects with no attribution required, but always appreciated. 
You may NOT sub-license, resell, rent, redistribute or otherwise transfer the icon without express written permission from iconmonstr.com -->

<!DOCTYPE svg PUBLIC "-//W3C//DTD SVG 1.1//EN" "http://www.w3.org/Graphics/SVG/1.1/DTD/svg11.dtd">
<svg version="1.1" xmlns="http://www.w3.org/2000/svg" xmlns:xlink="http://www.w3.org/1999/xlink" x="0px" y="0px"
	 width="512px" height="512px" viewBox="0 0 512 512" enable-background="new 0 0 512 512" xml:space="preserve">
<path id="connection-5-icon" d="M210.608,379.6l43.375-101.215l-88.287,15.859L304.371,132.4l-41.935,98.656l87.867-12.856
	L210.608,379.6z M256,90c91.741,0,166,74.242,166,166c0,91.742-74.243,166-166,166c-91.742,0-166-74.243-166-166
	C90,164.26,164.243,90,256,90 M256,50C142.229,50,50,142.229,50,256c0,113.771,92.229,206,206,206s206-92.229,206-206
	C462,142.229,369.771,50,256,50L256,50z"/>
</svg>
